# Wavefront OBJ file
# Exported by Maverick Model 3D 1.3.12
# Sun Jan 31 20:09:29 2021

mtllib box.mtl

# 8 Vertices
v 25.0 -25.0 25.0
v 25.0 -25.0 -25.0
v 25.0 25.0 25.0
v 25.0 25.0 -25.0
v -25.0 -25.0 -25.0
v -25.0 -25.0 25.0
v -25.0 25.0 -25.0
v -25.0 25.0 25.0

# 36 Texture Coordinates
vt 0.994253 0.996169
vt 0.998084 0.007663
vt 0.01341 0.988506
vt 1.0 0.0
vt 0.0 0.0
vt 0.0 1.0
vt 0.982312 0.99435
vt 0.983935 0.003117
vt 0.00787 0.987746
vt 1.0 0.0
vt 0.0 0.0
vt 0.0 1.0
vt 1.0 1.0
vt 0.0 0.0
vt 1.0 0.0
vt 1.0 1.0
vt 0.0 1.0
vt 0.0 0.0
vt 0.0 1.0
vt 1.0 0.0
vt 1.0 1.0
vt 0.0 1.0
vt 0.0 0.0
vt 1.0 0.0
vt 0.0 1.004982
vt 0.996329 -0.00441
vt 0.999323 1.001459
vt 0.0 1.0
vt 0.0 0.0
vt 1.0 0.0
vt 0.0 1.0
vt 1.0 0.0
vt 1.0 1.0
vt 0.0 1.0
vt 0.0 0.0
vt 1.0 0.0

# 36 Vertex Normals
vn 1.0 0.0 0.0
vn 1.0 0.0 0.0
vn 1.0 0.0 0.0
vn 1.0 0.0 0.0
vn 1.0 0.0 0.0
vn 1.0 0.0 0.0
vn -1.0 0.0 0.0
vn -1.0 0.0 0.0
vn -1.0 0.0 0.0
vn -1.0 0.0 0.0
vn -1.0 0.0 0.0
vn -1.0 0.0 0.0
vn 0.0 0.0 1.0
vn 0.0 0.0 1.0
vn 0.0 0.0 1.0
vn 0.0 0.0 1.0
vn 0.0 0.0 1.0
vn 0.0 0.0 1.0
vn 0.0 0.0 -1.0
vn 0.0 0.0 -1.0
vn 0.0 0.0 -1.0
vn 0.0 0.0 -1.0
vn 0.0 0.0 -1.0
vn 0.0 0.0 -1.0
vn 0.0 1.0 0.0
vn 0.0 1.0 0.0
vn 0.0 1.0 0.0
vn 0.0 1.0 0.0
vn 0.0 1.0 0.0
vn 0.0 1.0 0.0
vn 0.0 -1.0 0.0
vn 0.0 -1.0 0.0
vn 0.0 -1.0 0.0
vn 0.0 -1.0 0.0
vn 0.0 -1.0 0.0
vn 0.0 -1.0 0.0

# ungrouped, 12 grouped triangles

usemtl skin
o ungrouped
g ungrouped

f 1/1/1 2/2/2 3/3/3
f 2/4/4 4/5/5 3/6/6
f 5/7/7 6/8/8 7/9/9
f 6/10/10 8/11/11 7/12/12
f 3/13/13 6/14/14 1/15/15
f 3/16/16 8/17/17 6/18/18
f 7/19/19 2/20/20 5/21/21
f 7/22/22 4/23/23 2/24/24
f 3/25/25 7/26/26 8/27/27
f 3/28/28 4/29/29 7/30/30
f 2/31/31 6/32/32 5/33/33
f 2/34/34 1/35/35 6/36/36
