# Wavefront OBJ file
# Exported by Maverick Model 3D 1.3.12
# Sun Jan 31 19:36:03 2021

# 50 Vertices
v 7.59322 -7.701695 7.267797
v 7.59322 -7.701695 -7.918644
v 7.59322 7.918644 7.267797
v 7.59322 7.918644 -7.918644
v -7.59322 -7.701695 -7.918644
v -7.59322 -7.701695 7.267796
v -7.59322 7.918644 -7.918644
v -7.59322 7.918644 7.267796
v 7.671077 1.410169 0.0
v 7.671077 0.99714 0.99714
v 7.671077 0.0 1.410169
v 7.671077 -0.99714 0.99714
v 7.671077 -1.410169 0.0
v 7.671077 -0.99714 -0.99714
v 7.671077 0.0 -1.410169
v 7.671077 0.99714 -0.997141
v 8.647349 1.410169 0.0
v 8.647349 0.99714 0.99714
v 8.647349 0.0 1.410169
v 8.647349 -0.99714 0.99714
v 8.647349 -1.410169 0.0
v 8.647349 -0.99714 -0.99714
v 8.647349 0.0 -1.410169
v 8.647349 0.99714 -0.997141
v 9.62362 1.410169 0.0
v 9.62362 0.99714 0.99714
v 9.62362 0.0 1.410169
v 9.62362 -0.99714 0.99714
v 9.62362 -1.410169 0.0
v 9.62362 -0.99714 -0.99714
v 9.62362 0.0 -1.410169
v 9.62362 0.99714 -0.997141
v 10.599891 1.410169 0.0
v 10.599891 0.99714 0.99714
v 10.599891 0.0 1.410169
v 10.599891 -0.99714 0.99714
v 10.599891 -1.410169 0.0
v 10.599891 -0.99714 -0.99714
v 10.599891 0.0 -1.410169
v 10.599891 0.99714 -0.997141
v 11.576162 1.410169 0.0
v 11.576162 0.99714 0.99714
v 11.576162 0.0 1.410169
v 11.576162 -0.99714 0.99714
v 11.576162 -1.410169 0.0
v 11.576162 -0.99714 -0.99714
v 11.576162 0.0 -1.410169
v 11.576162 0.99714 -0.997141
v 7.671077 0.0 0.0
v 11.576162 0.0 0.0

# 276 Texture Coordinates
vt 1.0 0.0
vt 0.0 0.0
vt 0.0 1.0
vt 1.0 0.0
vt 0.0 0.0
vt 0.0 1.0
vt 1.0 0.0
vt 0.0 0.0
vt 0.0 1.0
vt 1.0 0.0
vt 0.0 0.0
vt 0.0 1.0
vt 0.0 1.0
vt 0.0 0.0
vt 1.0 0.0
vt 0.0 1.0
vt 0.0 0.0
vt 1.0 0.0
vt 0.0 1.0
vt 0.0 0.0
vt 1.0 0.0
vt 0.0 1.0
vt 0.0 0.0
vt 1.0 0.0
vt 0.0 1.0
vt 0.0 0.0
vt 1.0 0.0
vt 0.0 1.0
vt 0.0 0.0
vt 1.0 0.0
vt 0.0 1.0
vt 0.0 0.0
vt 1.0 0.0
vt 0.0 1.0
vt 0.0 0.0
vt 1.0 0.0
vt 0.0 1.0
vt 0.0 0.0
vt 1.0 0.0
vt 0.0 1.0
vt 0.0 0.0
vt 1.0 0.0
vt 0.0 1.0
vt 0.0 0.0
vt 1.0 0.0
vt 0.0 1.0
vt 0.0 0.0
vt 1.0 0.0
vt 0.0 1.0
vt 0.0 0.0
vt 1.0 0.0
vt 0.0 1.0
vt 0.0 0.0
vt 1.0 0.0
vt 0.0 1.0
vt 0.0 0.0
vt 1.0 0.0
vt 0.0 1.0
vt 0.0 0.0
vt 1.0 0.0
vt 0.0 1.0
vt 0.0 0.0
vt 1.0 0.0
vt 0.0 1.0
vt 0.0 0.0
vt 1.0 0.0
vt 0.0 1.0
vt 0.0 0.0
vt 1.0 0.0
vt 0.0 1.0
vt 0.0 0.0
vt 1.0 0.0
vt 0.0 1.0
vt 0.0 0.0
vt 1.0 0.0
vt 0.0 1.0
vt 0.0 0.0
vt 1.0 0.0
vt 0.0 1.0
vt 0.0 0.0
vt 1.0 0.0
vt 0.0 1.0
vt 0.0 0.0
vt 1.0 0.0
vt 0.0 1.0
vt 0.0 0.0
vt 1.0 0.0
vt 0.0 1.0
vt 0.0 0.0
vt 1.0 0.0
vt 0.0 1.0
vt 0.0 0.0
vt 1.0 0.0
vt 0.0 1.0
vt 0.0 0.0
vt 1.0 0.0
vt 0.0 1.0
vt 0.0 0.0
vt 1.0 0.0
vt 0.0 1.0
vt 0.0 0.0
vt 1.0 0.0
vt 0.0 1.0
vt 0.0 0.0
vt 1.0 0.0
vt 0.0 1.0
vt 0.0 0.0
vt 1.0 0.0
vt 0.0 1.0
vt 0.0 0.0
vt 1.0 0.0
vt 0.0 1.0
vt 0.0 0.0
vt 1.0 0.0
vt 0.0 1.0
vt 0.0 0.0
vt 1.0 0.0
vt 0.0 1.0
vt 0.0 0.0
vt 1.0 0.0
vt 0.0 1.0
vt 0.0 0.0
vt 1.0 0.0
vt 0.0 1.0
vt 0.0 0.0
vt 1.0 0.0
vt 0.0 1.0
vt 0.0 0.0
vt 1.0 0.0
vt 0.0 1.0
vt 0.0 0.0
vt 1.0 0.0
vt 0.0 1.0
vt 0.0 0.0
vt 1.0 0.0
vt 0.0 1.0
vt 0.0 0.0
vt 1.0 0.0
vt 0.0 1.0
vt 0.0 0.0
vt 1.0 0.0
vt 0.0 1.0
vt 0.0 0.0
vt 1.0 0.0
vt 0.0 1.0
vt 0.0 0.0
vt 1.0 0.0
vt 0.0 1.0
vt 0.0 0.0
vt 1.0 0.0
vt 0.0 1.0
vt 0.0 0.0
vt 1.0 0.0
vt 0.0 1.0
vt 0.0 0.0
vt 1.0 0.0
vt 0.0 1.0
vt 0.0 0.0
vt 1.0 0.0
vt 0.0 1.0
vt 0.0 0.0
vt 1.0 0.0
vt 0.0 1.0
vt 0.0 0.0
vt 1.0 0.0
vt 0.0 1.0
vt 0.0 0.0
vt 1.0 0.0
vt 0.0 1.0
vt 0.0 0.0
vt 1.0 0.0
vt 0.0 1.0
vt 0.0 0.0
vt 1.0 0.0
vt 0.0 1.0
vt 0.0 0.0
vt 1.0 0.0
vt 0.0 1.0
vt 0.0 0.0
vt 1.0 0.0
vt 0.0 1.0
vt 0.0 0.0
vt 1.0 0.0
vt 0.0 1.0
vt 0.0 0.0
vt 1.0 0.0
vt 0.0 1.0
vt 0.0 0.0
vt 1.0 0.0
vt 0.0 1.0
vt 0.0 0.0
vt 1.0 0.0
vt 0.0 1.0
vt 0.0 0.0
vt 1.0 0.0
vt 0.0 1.0
vt 0.0 0.0
vt 1.0 0.0
vt 0.0 1.0
vt 0.0 0.0
vt 1.0 0.0
vt 0.0 1.0
vt 0.0 0.0
vt 1.0 0.0
vt 0.0 1.0
vt 0.0 0.0
vt 1.0 0.0
vt 0.0 1.0
vt 0.0 0.0
vt 1.0 0.0
vt 0.0 1.0
vt 0.0 0.0
vt 1.0 0.0
vt 0.0 1.0
vt 0.0 0.0
vt 1.0 0.0
vt 0.0 1.0
vt 0.0 0.0
vt 1.0 0.0
vt 0.0 1.0
vt 0.0 0.0
vt 1.0 0.0
vt 0.0 1.0
vt 0.0 0.0
vt 1.0 0.0
vt 0.0 1.0
vt 0.0 0.0
vt 1.0 0.0
vt 0.0 1.0
vt 0.0 0.0
vt 1.0 0.0
vt 0.0 1.0
vt 0.0 0.0
vt 1.0 0.0
vt 0.0 1.0
vt 0.0 0.0
vt 1.0 0.0
vt 0.0 1.0
vt 0.0 0.0
vt 1.0 0.0
vt 0.0 1.0
vt 0.0 0.0
vt 1.0 0.0
vt 0.0 1.0
vt 0.0 0.0
vt 1.0 0.0
vt 0.0 1.0
vt 0.0 0.0
vt 1.0 0.0
vt 0.0 1.0
vt 0.0 0.0
vt 1.0 0.0
vt 0.0 1.0
vt 0.0 0.0
vt 1.0 0.0
vt 0.0 1.0
vt 0.0 0.0
vt 1.0 0.0
vt 0.0 1.0
vt 0.0 0.0
vt 1.0 0.0
vt 0.0 1.0
vt 0.0 0.0
vt 1.0 0.0
vt 0.0 1.0
vt 0.0 0.0
vt 1.0 0.0
vt 0.0 1.0
vt 0.0 0.0
vt 1.0 0.0
vt 0.0 1.0
vt 0.0 0.0
vt 1.0 0.0
vt 0.0 1.0
vt 0.0 0.0
vt 1.0 0.0

# 276 Vertex Normals
vn 1.0 0.0 0.0
vn 1.0 0.0 0.0
vn 1.0 0.0 0.0
vn 1.0 0.0 0.0
vn 1.0 0.0 0.0
vn 1.0 0.0 0.0
vn -1.0 0.0 0.0
vn -1.0 0.0 0.0
vn -1.0 0.0 0.0
vn -1.0 0.0 0.0
vn -1.0 0.0 0.0
vn -1.0 0.0 0.0
vn -0.0 0.0 1.0
vn -0.0 0.0 1.0
vn -0.0 0.0 1.0
vn -0.0 0.0 1.0
vn -0.0 0.0 1.0
vn -0.0 0.0 1.0
vn 0.0 0.0 -1.0
vn 0.0 0.0 -1.0
vn 0.0 0.0 -1.0
vn 0.0 0.0 -1.0
vn 0.0 0.0 -1.0
vn 0.0 0.0 -1.0
vn 0.0 1.0 0.0
vn 0.0 1.0 0.0
vn 0.0 1.0 0.0
vn 0.0 1.0 0.0
vn 0.0 1.0 0.0
vn 0.0 1.0 0.0
vn 0.0 -1.0 0.0
vn 0.0 -1.0 0.0
vn 0.0 -1.0 0.0
vn 0.0 -1.0 0.0
vn 0.0 -1.0 0.0
vn 0.0 -1.0 0.0
vn 0.0 0.990602 -0.136773
vn 0.0 0.797175 0.603748
vn 0.0 1.0 0.0
vn 0.0 0.797175 0.603748
vn 0.0 0.707107 0.707107
vn 0.0 1.0 0.0
vn 0.0 0.797175 0.603748
vn 0.0 0.136774 0.990602
vn 0.0 0.707107 0.707107
vn 0.0 0.136774 0.990602
vn 0.0 0.0 1.0
vn 0.0 0.707107 0.707107
vn 0.0 0.136774 0.990602
vn 0.0 -0.603748 0.797175
vn 0.0 0.0 1.0
vn 0.0 -0.603748 0.797175
vn 0.0 -0.707107 0.707107
vn 0.0 0.0 1.0
vn 0.0 -0.603748 0.797175
vn 0.0 -0.990602 0.136774
vn 0.0 -0.707107 0.707107
vn 0.0 -0.990602 0.136774
vn 0.0 -1.0 0.0
vn 0.0 -0.707107 0.707107
vn 0.0 -0.990602 0.136774
vn 0.0 -0.797175 -0.603748
vn 0.0 -1.0 0.0
vn 0.0 -0.797175 -0.603748
vn 0.0 -0.707107 -0.707107
vn 0.0 -1.0 0.0
vn 0.0 -0.797175 -0.603748
vn 0.0 -0.136774 -0.990602
vn 0.0 -0.707107 -0.707107
vn 0.0 -0.136774 -0.990602
vn 0.0 -0.0 -1.0
vn 0.0 -0.707107 -0.707107
vn 0.0 -0.136774 -0.990602
vn 0.0 0.603748 -0.797175
vn 0.0 -0.0 -1.0
vn 0.0 0.603748 -0.797175
vn 0.0 0.707107 -0.707107
vn 0.0 -0.0 -1.0
vn 0.0 0.603748 -0.797175
vn 0.0 0.990602 -0.136773
vn 0.0 0.707107 -0.707107
vn 0.0 0.990602 -0.136773
vn 0.0 1.0 0.0
vn 0.0 0.707107 -0.707107
vn 0.0 1.0 0.0
vn 0.0 0.707107 0.707107
vn 0.0 1.0 0.0
vn 0.0 0.707107 0.707107
vn 0.0 0.707107 0.707107
vn 0.0 1.0 0.0
vn 0.0 0.707107 0.707107
vn 0.0 0.0 1.0
vn 0.0 0.707107 0.707107
vn 0.0 0.0 1.0
vn 0.0 0.0 1.0
vn 0.0 0.707107 0.707107
vn 0.0 0.0 1.0
vn 0.0 -0.707107 0.707107
vn 0.0 0.0 1.0
vn 0.0 -0.707107 0.707107
vn 0.0 -0.707107 0.707107
vn 0.0 0.0 1.0
vn 0.0 -0.707107 0.707107
vn 0.0 -1.0 0.0
vn 0.0 -0.707107 0.707107
vn 0.0 -1.0 0.0
vn 0.0 -1.0 0.0
vn 0.0 -0.707107 0.707107
vn 0.0 -1.0 0.0
vn 0.0 -0.707107 -0.707107
vn 0.0 -1.0 0.0
vn 0.0 -0.707107 -0.707107
vn 0.0 -0.707107 -0.707107
vn 0.0 -1.0 0.0
vn 0.0 -0.707107 -0.707107
vn 0.0 -0.0 -1.0
vn 0.0 -0.707107 -0.707107
vn 0.0 -0.0 -1.0
vn 0.0 -0.0 -1.0
vn 0.0 -0.707107 -0.707107
vn 0.0 -0.0 -1.0
vn 0.0 0.707107 -0.707107
vn 0.0 -0.0 -1.0
vn 0.0 0.707107 -0.707107
vn 0.0 0.707107 -0.707107
vn 0.0 -0.0 -1.0
vn 0.0 0.707107 -0.707107
vn 0.0 1.0 0.0
vn 0.0 0.707107 -0.707107
vn 0.0 1.0 0.0
vn 0.0 1.0 0.0
vn 0.0 0.707107 -0.707107
vn 0.0 1.0 0.0
vn 0.0 0.707107 0.707107
vn 0.0 1.0 0.0
vn 0.0 0.707107 0.707107
vn 0.0 0.707107 0.707107
vn 0.0 1.0 0.0
vn 0.0 0.707107 0.707107
vn 0.0 0.0 1.0
vn 0.0 0.707107 0.707107
vn 0.0 0.0 1.0
vn 0.0 0.0 1.0
vn 0.0 0.707107 0.707107
vn 0.0 0.0 1.0
vn 0.0 -0.707107 0.707107
vn 0.0 0.0 1.0
vn 0.0 -0.707107 0.707107
vn 0.0 -0.707107 0.707107
vn 0.0 0.0 1.0
vn 0.0 -0.707107 0.707107
vn 0.0 -1.0 0.0
vn 0.0 -0.707107 0.707107
vn 0.0 -1.0 0.0
vn 0.0 -1.0 0.0
vn 0.0 -0.707107 0.707107
vn 0.0 -1.0 0.0
vn 0.0 -0.707107 -0.707107
vn 0.0 -1.0 0.0
vn 0.0 -0.707107 -0.707107
vn 0.0 -0.707107 -0.707107
vn 0.0 -1.0 0.0
vn 0.0 -0.707107 -0.707107
vn 0.0 -0.0 -1.0
vn 0.0 -0.707107 -0.707107
vn 0.0 -0.0 -1.0
vn 0.0 -0.0 -1.0
vn 0.0 -0.707107 -0.707107
vn 0.0 -0.0 -1.0
vn 0.0 0.707107 -0.707107
vn 0.0 -0.0 -1.0
vn 0.0 0.707107 -0.707107
vn 0.0 0.707107 -0.707107
vn 0.0 -0.0 -1.0
vn 0.0 0.707107 -0.707107
vn 0.0 1.0 0.0
vn 0.0 0.707107 -0.707107
vn 0.0 1.0 0.0
vn 0.0 1.0 0.0
vn 0.0 0.707107 -0.707107
vn 0.0 1.0 0.0
vn 0.0 0.707107 0.707107
vn 0.0 0.990602 0.136774
vn 0.0 0.707107 0.707107
vn 0.0 0.603748 0.797175
vn 0.0 0.990602 0.136774
vn 0.0 0.707107 0.707107
vn 0.0 0.0 1.0
vn 0.0 0.603748 0.797175
vn 0.0 0.0 1.0
vn 0.0 -0.136774 0.990602
vn 0.0 0.603748 0.797175
vn 0.0 0.0 1.0
vn 0.0 -0.707107 0.707107
vn 0.0 -0.136774 0.990602
vn 0.0 -0.707107 0.707107
vn 0.0 -0.797175 0.603748
vn 0.0 -0.136774 0.990602
vn 0.0 -0.707107 0.707107
vn 0.0 -1.0 0.0
vn 0.0 -0.797175 0.603748
vn 0.0 -1.0 0.0
vn 0.0 -0.990602 -0.136774
vn 0.0 -0.797175 0.603748
vn 0.0 -1.0 0.0
vn 0.0 -0.707107 -0.707107
vn 0.0 -0.990602 -0.136774
vn 0.0 -0.707107 -0.707107
vn 0.0 -0.603748 -0.797175
vn 0.0 -0.990602 -0.136774
vn 0.0 -0.707107 -0.707107
vn 0.0 -0.0 -1.0
vn 0.0 -0.603748 -0.797175
vn 0.0 -0.0 -1.0
vn 0.0 0.136773 -0.990602
vn 0.0 -0.603748 -0.797175
vn 0.0 -0.0 -1.0
vn 0.0 0.707107 -0.707107
vn 0.0 0.136773 -0.990602
vn 0.0 0.707107 -0.707107
vn 0.0 0.797175 -0.603748
vn 0.0 0.136773 -0.990602
vn 0.0 0.707107 -0.707107
vn 0.0 1.0 0.0
vn 0.0 0.797175 -0.603748
vn 0.0 1.0 0.0
vn 0.0 0.990602 0.136774
vn 0.0 0.797175 -0.603748
vn -1.0 0.0 0.0
vn -1.0 0.0 0.0
vn -1.0 0.0 0.0
vn -1.0 0.0 0.0
vn -1.0 0.0 0.0
vn -1.0 0.0 0.0
vn -1.0 0.0 0.0
vn -1.0 0.0 0.0
vn -1.0 0.0 0.0
vn -1.0 0.0 0.0
vn -1.0 0.0 0.0
vn -1.0 0.0 0.0
vn -1.0 0.0 0.0
vn -1.0 0.0 0.0
vn -1.0 0.0 0.0
vn -1.0 0.0 0.0
vn -1.0 0.0 0.0
vn -1.0 0.0 0.0
vn -1.0 0.0 0.0
vn -1.0 0.0 0.0
vn -1.0 0.0 0.0
vn -1.0 0.0 0.0
vn -1.0 0.0 0.0
vn -1.0 0.0 0.0
vn 1.0 0.0 0.0
vn 1.0 0.0 0.0
vn 1.0 0.0 0.0
vn 1.0 0.0 0.0
vn 1.0 0.0 0.0
vn 1.0 0.0 0.0
vn 1.0 0.0 0.0
vn 1.0 0.0 0.0
vn 1.0 0.0 0.0
vn 1.0 0.0 0.0
vn 1.0 0.0 0.0
vn 1.0 0.0 0.0
vn 1.0 0.0 0.0
vn 1.0 0.0 0.0
vn 1.0 0.0 0.0
vn 1.0 0.0 0.0
vn 1.0 0.0 0.0
vn 1.0 0.0 0.0
vn 1.0 0.0 0.0
vn 1.0 0.0 0.0
vn 1.0 0.0 0.0
vn 1.0 0.0 0.0
vn 1.0 0.0 0.0
vn 1.0 0.0 0.0

# ungrouped, 92 grouped triangles

o ungrouped
g ungrouped

f 1/1/1 2/2/2 3/3/3
f 2/4/4 4/5/5 3/6/6
f 5/7/7 6/8/8 7/9/9
f 6/10/10 8/11/11 7/12/12
f 3/13/13 6/14/14 1/15/15
f 3/16/16 8/17/17 6/18/18
f 7/19/19 2/20/20 5/21/21
f 7/22/22 4/23/23 2/24/24
f 3/25/25 7/26/26 8/27/27
f 3/28/28 4/29/29 7/30/30
f 2/31/31 6/32/32 5/33/33
f 2/34/34 1/35/35 6/36/36
f 9/37/37 10/38/38 17/39/39
f 10/40/40 18/41/41 17/42/42
f 10/43/43 11/44/44 18/45/45
f 11/46/46 19/47/47 18/48/48
f 11/49/49 12/50/50 19/51/51
f 12/52/52 20/53/53 19/54/54
f 12/55/55 13/56/56 20/57/57
f 13/58/58 21/59/59 20/60/60
f 13/61/61 14/62/62 21/63/63
f 14/64/64 22/65/65 21/66/66
f 14/67/67 15/68/68 22/69/69
f 15/70/70 23/71/71 22/72/72
f 15/73/73 16/74/74 23/75/75
f 16/76/76 24/77/77 23/78/78
f 16/79/79 9/80/80 24/81/81
f 9/82/82 17/83/83 24/84/84
f 17/85/85 18/86/86 25/87/87
f 18/88/88 26/89/89 25/90/90
f 18/91/91 19/92/92 26/93/93
f 19/94/94 27/95/95 26/96/96
f 19/97/97 20/98/98 27/99/99
f 20/100/100 28/101/101 27/102/102
f 20/103/103 21/104/104 28/105/105
f 21/106/106 29/107/107 28/108/108
f 21/109/109 22/110/110 29/111/111
f 22/112/112 30/113/113 29/114/114
f 22/115/115 23/116/116 30/117/117
f 23/118/118 31/119/119 30/120/120
f 23/121/121 24/122/122 31/123/123
f 24/124/124 32/125/125 31/126/126
f 24/127/127 17/128/128 32/129/129
f 17/130/130 25/131/131 32/132/132
f 25/133/133 26/134/134 33/135/135
f 26/136/136 34/137/137 33/138/138
f 26/139/139 27/140/140 34/141/141
f 27/142/142 35/143/143 34/144/144
f 27/145/145 28/146/146 35/147/147
f 28/148/148 36/149/149 35/150/150
f 28/151/151 29/152/152 36/153/153
f 29/154/154 37/155/155 36/156/156
f 29/157/157 30/158/158 37/159/159
f 30/160/160 38/161/161 37/162/162
f 30/163/163 31/164/164 38/165/165
f 31/166/166 39/167/167 38/168/168
f 31/169/169 32/170/170 39/171/171
f 32/172/172 40/173/173 39/174/174
f 32/175/175 25/176/176 40/177/177
f 25/178/178 33/179/179 40/180/180
f 33/181/181 34/182/182 41/183/183
f 34/184/184 42/185/185 41/186/186
f 34/187/187 35/188/188 42/189/189
f 35/190/190 43/191/191 42/192/192
f 35/193/193 36/194/194 43/195/195
f 36/196/196 44/197/197 43/198/198
f 36/199/199 37/200/200 44/201/201
f 37/202/202 45/203/203 44/204/204
f 37/205/205 38/206/206 45/207/207
f 38/208/208 46/209/209 45/210/210
f 38/211/211 39/212/212 46/213/213
f 39/214/214 47/215/215 46/216/216
f 39/217/217 40/218/218 47/219/219
f 40/220/220 48/221/221 47/222/222
f 40/223/223 33/224/224 48/225/225
f 33/226/226 41/227/227 48/228/228
f 49/229/229 10/230/230 9/231/231
f 49/232/232 11/233/233 10/234/234
f 49/235/235 12/236/236 11/237/237
f 49/238/238 13/239/239 12/240/240
f 49/241/241 14/242/242 13/243/243
f 49/244/244 15/245/245 14/246/246
f 49/247/247 16/248/248 15/249/249
f 49/250/250 9/251/251 16/252/252
f 50/253/253 41/254/254 42/255/255
f 50/256/256 42/257/257 43/258/258
f 50/259/259 43/260/260 44/261/261
f 50/262/262 44/263/263 45/264/264
f 50/265/265 45/266/266 46/267/267
f 50/268/268 46/269/269 47/270/270
f 50/271/271 47/272/272 48/273/273
f 50/274/274 48/275/275 41/276/276
